<?xml version="1.0" ?><svg viewBox="0 0 64 64" xmlns="http://www.w3.org/2000/svg"><title/><g id="Icons"><path d="M57,4H19a3.009,3.009,0,0,0-3,3V53a5,5,0,0,1-5,5,1,1,0,0,0,0,2H57a3.009,3.009,0,0,0,3-3V7A3.009,3.009,0,0,0,57,4ZM33,52H21a1,1,0,0,1,0-2H33a1,1,0,0,1,0,2Zm4.71-.29a1.155,1.155,0,0,1-.33.21A.99.99,0,0,1,36,51a.838.838,0,0,1,.08-.38,1.032,1.032,0,0,1,.21-.33,1.047,1.047,0,0,1,1.42,0,1.155,1.155,0,0,1,.21.33.99.99,0,0,1-.21,1.09ZM37,48H21a1,1,0,0,1,0-2H37a1,1,0,0,1,0,2ZM20,35a1,1,0,0,1,1-1H47a1,1,0,0,1,0,2H21A1,1,0,0,1,20,35Zm17,9H25a1,1,0,0,1,0-2H37a1,1,0,0,1,0,2ZM56,55a1,1,0,0,1-1,1H41a1,1,0,0,1-1-1V41a1,1,0,0,1,1-1H55a1,1,0,0,1,1,1ZM50,35a.838.838,0,0,1,.08-.38,1.032,1.032,0,0,1,.21-.33,1.047,1.047,0,0,1,1.42,0,1.032,1.032,0,0,1,.21.33.99.99,0,0,1-.21,1.09,1.155,1.155,0,0,1-.33.21.942.942,0,0,1-.76,0,1.032,1.032,0,0,1-.33-.21A.99.99,0,0,1,50,35Zm5-3H21a1,1,0,0,1,0-2H55a1,1,0,0,1,0,2Zm0-4H25a1,1,0,0,1,0-2H55a1,1,0,0,1,0,2Zm1-7a1,1,0,0,1-1,1H21a1,1,0,0,1-1-1V9a1,1,0,0,1,1-1H55a1,1,0,0,1,1,1Z" style="fill:#727172"/><path d="M14,13V53a3.009,3.009,0,0,1-3,3,3.009,3.009,0,0,0-3,3c0,.11.01.22.02.33A7,7,0,0,1,4,53V16a3.009,3.009,0,0,1,3-3Z" style="fill:#727172"/></g></svg>