<svg version="1.1" xmlns="http://www.w3.org/2000/svg" xmlns:xlink="http://www.w3.org/1999/xlink" width="25" height="25" viewBox="0 0 25 25"><path id="Plot" d="M23.010,20.619 C23.010,21.796 23.010,22.937 23.010,24.102 C22.671,24.102 22.355,24.102 22.004,24.102 C22.004,22.955 22.004,21.806 22.004,20.633 C21.327,20.633 20.686,20.633 20.022,20.633 C20.022,14.960 20.022,9.313 20.022,3.619 C20.686,3.619 21.328,3.619 21.992,3.619 C21.992,2.454 21.992,1.312 21.992,0.148 C22.330,0.148 22.646,0.148 22.996,0.148 C22.996,1.296 22.996,2.446 22.996,3.618 C23.672,3.618 24.314,3.618 24.978,3.618 C24.978,9.289 24.978,14.936 24.978,20.619 C24.332,20.619 23.682,20.619 23.010,20.619 zM23.985,4.645 C22.984,4.645 22.002,4.645 21.023,4.645 C21.023,9.647 21.023,14.628 21.023,19.610 C22.020,19.610 22.995,19.610 23.985,19.610 C23.985,14.622 23.985,9.648 23.985,4.645 zM13.010,24.108 C12.667,24.108 12.359,24.108 12.015,24.108 C12.015,22.966 12.015,21.817 12.015,20.633 C11.331,20.633 10.682,20.633 10.016,20.633 C10.016,17.623 10.016,14.648 10.016,11.639 C10.661,11.639 11.310,11.639 12.004,11.639 C12.004,7.776 12.004,3.968 12.004,0.142 C12.334,0.142 12.642,0.142 12.984,0.142 C12.984,3.951 12.984,7.767 12.984,11.616 C13.666,11.616 14.316,11.616 14.983,11.616 C14.983,14.632 14.983,17.614 14.983,20.619 C14.328,20.619 13.686,20.619 13.010,20.619 C13.010,21.792 13.010,22.941 13.010,24.108 zM13.984,19.600 C13.984,17.267 13.984,14.960 13.984,12.639 C12.993,12.639 12.019,12.639 11.022,12.639 C11.022,14.980 11.022,17.294 11.022,19.600 C12.027,19.600 13.009,19.600 13.984,19.600 zM3.017,24.103 C2.668,24.103 2.353,24.103 2.003,24.103 C2.003,21.619 2.003,19.137 2.003,16.632 C1.328,16.632 0.686,16.632 0.022,16.632 C0.022,12.960 0.022,9.312 0.022,5.617 C0.686,5.617 1.328,5.617 1.993,5.617 C1.993,3.785 1.993,1.977 1.993,0.147 C2.332,0.147 2.648,0.147 2.987,0.147 C2.987,1.958 2.987,3.766 2.987,5.608 C3.658,5.608 4.308,5.608 4.979,5.608 C4.979,9.291 4.979,12.939 4.979,16.611 C4.335,16.611 3.693,16.611 3.017,16.611 C3.017,19.117 3.017,21.599 3.017,24.103 zM3.976,15.602 C3.976,12.599 3.976,9.618 3.976,6.643 C2.977,6.643 2.002,6.643 1.014,6.643 C1.014,9.634 1.014,12.607 1.014,15.602 C2.021,15.602 3.003,15.602 3.976,15.602 z" fill="#757575" /></svg>